<?xml version="1.0" standalone="no"?><!DOCTYPE svg PUBLIC "-//W3C//DTD SVG 1.1//EN" "http://www.w3.org/Graphics/SVG/1.1/DTD/svg11.dtd"><svg t="1526367933645" class="icon" style="" viewBox="0 0 1024 1024" version="1.1" xmlns="http://www.w3.org/2000/svg" p-id="1032" xmlns:xlink="http://www.w3.org/1999/xlink" width="200" height="200"><defs><style type="text/css"></style></defs><path d="M512 0.999C229.476 0.999 0.5 229.975 0.5 512.499S229.476 1024 512 1024s511.5-228.976 511.5-511.5S794.524 0.999 512 0.999z m245.36 616.498c-14.485 13.587-37.263 12.887-50.85-1.598L512 408.4 317.39 615.998c-13.587 14.486-36.364 15.186-50.85 1.599-14.486-13.587-15.185-36.365-1.599-50.85l220.785-235.57c6.793-7.293 16.284-11.39 26.274-11.39s19.481 4.097 26.174 11.29l220.785 235.57c13.587 14.485 12.887 37.263-1.599 50.85z" p-id="1033"></path></svg>